Coordinates
version=1
nRows=12
nColumns=34
inDegrees=no

Units are S.I. units (second, meters, Newtons, ...)
If the header above contains a line with 'inDegrees', this indicates whether rotational values are in degrees (yes) or radians (no).

endheader
time	pelvis_tilt	pelvis_list	pelvis_rotation	pelvis_tx	pelvis_ty	pelvis_tz	hip_flexion_r	hip_adduction_r	hip_rotation_r	knee_angle_r	ankle_angle_r	subtalar_angle_r	mtp_angle_r	hip_flexion_l	hip_adduction_l	hip_rotation_l	knee_angle_l	ankle_angle_l	subtalar_angle_l	mtp_angle_l	lumbar_extension	lumbar_bending	lumbar_rotation	arm_flex_r	arm_add_r	arm_rot_r	elbow_flex_r	pro_sup_r	arm_flex_l	arm_add_l	arm_rot_l	elbow_flex_l	pro_sup_l
0.596251	-0.100757	-0.127907	-0.0615824	-0.0244939	0.929742	0.0258106	0.27285	0.0524564	-0.123267	0.818104	0.342086	0.0691249	0.163815	0.484334	-0.34735	-0.109843	1.4322	0.112223	-0.195486	0.00538876	-0.266642	0.147349	0.137291	0.0716945	-0.220229	-0.235575	1.66026	0.864748	-0.287303	-0.199622	-0.00307099	1.67527	0.81339
0.597249	-0.101713	-0.127404	-0.0616579	-0.0245088	0.930368	0.0257862	0.270162	0.052121	-0.12328	0.814735	0.338282	0.0695396	0.16727	0.487182	-0.346674	-0.110608	1.42827	0.113363	-0.194032	0.00609919	-0.26566	0.146449	0.139414	0.0728869	-0.218781	-0.235946	1.66402	0.864997	-0.290057	-0.20099	-0.00389769	1.67777	0.813352
0.598248	-0.102675	-0.126898	-0.0617344	-0.0245208	0.931002	0.0257622	0.267477	0.0517855	-0.123297	0.81134	0.334403	0.0699422	0.170748	0.490002	-0.345996	-0.111399	1.42425	0.114472	-0.192561	0.00681154	-0.264665	0.145537	0.141538	0.074043	-0.217342	-0.236318	1.66781	0.865244	-0.29281	-0.202355	-0.00473613	1.68028	0.813316
0.599247	-0.103643	-0.126389	-0.0618117	-0.0245298	0.931644	0.0257387	0.264798	0.0514499	-0.123319	0.807919	0.33045	0.0703325	0.174248	0.492794	-0.345315	-0.112216	1.42013	0.115552	-0.191075	0.00752554	-0.263657	0.144614	0.143664	0.0751633	-0.215914	-0.236689	1.67162	0.865489	-0.29556	-0.203716	-0.00558681	1.68281	0.813282
0.600246	-0.104615	-0.125878	-0.06189	-0.0245359	0.932296	0.0257155	0.262122	0.0511143	-0.123346	0.804474	0.326423	0.0707108	0.17777	0.495558	-0.344632	-0.113058	1.41593	0.116602	-0.189572	0.00824092	-0.262637	0.14368	0.145791	0.0762482	-0.214498	-0.237059	1.67545	0.865732	-0.298309	-0.205072	-0.00645022	1.68534	0.81325
0.601244	-0.105593	-0.125364	-0.0619691	-0.0245389	0.932956	0.0256926	0.259453	0.0507785	-0.123377	0.801006	0.322323	0.071077	0.181312	0.498293	-0.343946	-0.113925	1.41164	0.117621	-0.188053	0.00895742	-0.261606	0.142736	0.14792	0.0772983	-0.213093	-0.237427	1.6793	0.865973	-0.301055	-0.206424	-0.00732683	1.68788	0.81322
0.602243	-0.106576	-0.124848	-0.0620491	-0.024539	0.933624	0.0256702	0.256789	0.0504426	-0.123413	0.797515	0.318151	0.0714314	0.184873	0.500999	-0.343258	-0.114817	1.40726	0.118609	-0.186519	0.00967477	-0.260563	0.141781	0.150048	0.0783139	-0.211701	-0.237792	1.68317	0.866212	-0.3038	-0.20777	-0.00821709	1.69043	0.813191
0.603242	-0.107563	-0.124331	-0.0621301	-0.0245361	0.9343	0.025648	0.254131	0.0501065	-0.123455	0.794004	0.313906	0.0717738	0.188452	0.503676	-0.342568	-0.115733	1.40279	0.119566	-0.184969	0.0103927	-0.259509	0.140816	0.152177	0.0792957	-0.210322	-0.238155	1.68706	0.866449	-0.306541	-0.209111	-0.00912145	1.69299	0.813165
0.604241	-0.108556	-0.123811	-0.0622119	-0.0245302	0.934984	0.0256263	0.25148	0.0497703	-0.123502	0.790473	0.309591	0.0721045	0.192049	0.506323	-0.341875	-0.116674	1.39823	0.120493	-0.183403	0.011111	-0.258444	0.13984	0.154307	0.0802439	-0.208957	-0.238514	1.69097	0.866685	-0.309281	-0.210445	-0.0100404	1.69555	0.81314
0.605239	-0.109552	-0.12329	-0.0622947	-0.0245214	0.935677	0.0256048	0.248836	0.0494338	-0.123554	0.786923	0.305204	0.0724235	0.195661	0.508941	-0.341181	-0.117638	1.39359	0.121387	-0.181822	0.0118294	-0.257368	0.138856	0.156436	0.0811592	-0.207607	-0.238868	1.6949	0.866918	-0.312017	-0.211772	-0.0109742	1.69812	0.813116
0.606238	-0.110554	-0.122767	-0.0623785	-0.0245097	0.936376	0.0255837	0.246199	0.0490971	-0.123611	0.783356	0.300749	0.0727309	0.199288	0.51153	-0.340485	-0.118626	1.38886	0.122251	-0.180226	0.0125476	-0.256282	0.137861	0.158565	0.082042	-0.206271	-0.239216	1.69884	0.867149	-0.314751	-0.213091	-0.0119235	1.7007	0.813094
0.607237	-0.111559	-0.122243	-0.0624631	-0.024495	0.937084	0.0255629	0.243571	0.0487602	-0.123675	0.779773	0.296224	0.0730269	0.202928	0.514088	-0.339787	-0.119637	1.38405	0.123082	-0.178614	0.0132654	-0.255186	0.136858	0.160693	0.0828928	-0.204951	-0.239559	1.7028	0.867378	-0.317482	-0.214403	-0.0128885	1.70327	0.813074
